<svg width="68" height="14" viewBox="0 0 68 14" fill="none" xmlns="http://www.w3.org/2000/svg">
<path opacity="0.5" fill-rule="evenodd" clip-rule="evenodd" d="M46.5894 1.16H61.4106C62.6587 1.16 63.1113 1.28996 63.5676 1.53399C64.0239 1.77802 64.382 2.13612 64.626 2.59242C64.87 3.04872 65 3.50132 65 4.74944V9.07056C65 10.3187 64.87 10.7713 64.626 11.2276C64.382 11.6839 64.0239 12.042 63.5676 12.286C63.1113 12.53 62.6587 12.66 61.4106 12.66H46.5894C45.3413 12.66 44.8887 12.53 44.4324 12.286C43.9761 12.042 43.618 11.6839 43.374 11.2276C43.13 10.7713 43 10.3187 43 9.07056V4.74944C43 3.50132 43.13 3.04872 43.374 2.59242C43.618 2.13612 43.9761 1.77802 44.4324 1.53399C44.8887 1.28996 45.3413 1.16 46.5894 1.16ZM46.5894 2.16C45.6025 2.16 45.2579 2.22654 44.904 2.4158C44.622 2.56663 44.4066 2.78199 44.2558 3.06402C44.0665 3.41791 44 3.76246 44 4.74944V9.07056C44 10.0575 44.0665 10.4021 44.2558 10.756C44.4066 11.038 44.622 11.2534 44.904 11.4042C45.2579 11.5935 45.6025 11.66 46.5894 11.66H61.4106C62.3975 11.66 62.7421 11.5935 63.096 11.4042C63.378 11.2534 63.5934 11.038 63.7442 10.756C63.9335 10.4021 64 10.0575 64 9.07056V4.74944C64 3.76246 63.9335 3.41791 63.7442 3.06402C63.5934 2.78199 63.378 2.56663 63.096 2.4158C62.7421 2.22654 62.3975 2.16 61.4106 2.16H46.5894ZM67.5 6.85001C67.5 8.08658 66 8.85001 66 8.85001V4.85001C66 4.85001 67.5 5.61343 67.5 6.85001Z" fill="white"/>
<rect x="45" y="3.07666" width="18" height="7.66667" rx="1.6" fill="white"/>
<path fill-rule="evenodd" clip-rule="evenodd" d="M14.623 2.5659C14.6 2.68182 14.6 2.82121 14.6 3.1V10.8C14.6 11.0788 14.6 11.2182 14.623 11.3341C14.7177 11.8101 15.0899 12.1823 15.5659 12.2769C15.6818 12.3 15.8212 12.3 16.1 12.3C16.3788 12.3 16.5182 12.3 16.6341 12.2769C17.1101 12.1823 17.4822 11.8101 17.5769 11.3341C17.6 11.2182 17.6 11.0788 17.6 10.8V3.10001C17.6 2.82121 17.6 2.68182 17.5769 2.5659C17.4822 2.08987 17.1101 1.71775 16.6341 1.62306C16.5182 1.60001 16.3788 1.60001 16.1 1.60001C15.8212 1.60001 15.6818 1.60001 15.5659 1.62306C15.0899 1.71775 14.7177 2.08987 14.623 2.5659ZM9.89999 5.50001C9.89999 5.22121 9.89999 5.08182 9.92305 4.9659C10.0177 4.48987 10.3899 4.11775 10.8659 4.02307C10.9818 4.00001 11.1212 4.00001 11.4 4.00001C11.6788 4.00001 11.8182 4.00001 11.9341 4.02307C12.4101 4.11775 12.7822 4.48987 12.8769 4.9659C12.9 5.08182 12.9 5.22121 12.9 5.50001V10.8C12.9 11.0788 12.9 11.2182 12.8769 11.3341C12.7822 11.8101 12.4101 12.1823 11.9341 12.277C11.8182 12.3 11.6788 12.3 11.4 12.3C11.1212 12.3 10.9818 12.3 10.8659 12.277C10.3899 12.1823 10.0177 11.8101 9.92305 11.3341C9.89999 11.2182 9.89999 11.0788 9.89999 10.8V5.50001ZM5.32305 7.2659C5.29999 7.38182 5.29999 7.52122 5.29999 7.80001V10.8C5.29999 11.0788 5.29999 11.2182 5.32305 11.3341C5.41773 11.8101 5.78985 12.1823 6.26588 12.277C6.3818 12.3 6.52119 12.3 6.79999 12.3C7.07878 12.3 7.21818 12.3 7.3341 12.277C7.81012 12.1823 8.18224 11.8101 8.27693 11.3341C8.29999 11.2182 8.29999 11.0788 8.29999 10.8V7.80001C8.29999 7.52122 8.29999 7.38182 8.27693 7.2659C8.18224 6.78987 7.81012 6.41776 7.3341 6.32307C7.21818 6.30001 7.07878 6.30001 6.79999 6.30001C6.52119 6.30001 6.3818 6.30001 6.26588 6.32307C5.78985 6.41776 5.41773 6.78987 5.32305 7.2659ZM0.523058 9.2659C0.5 9.38182 0.5 9.52122 0.5 9.80001V10.8C0.5 11.0788 0.5 11.2182 0.523058 11.3341C0.617746 11.8101 0.989863 12.1823 1.46589 12.277C1.58181 12.3 1.72121 12.3 2 12.3C2.27879 12.3 2.41819 12.3 2.53411 12.277C3.01014 12.1823 3.38225 11.8101 3.47694 11.3341C3.5 11.2182 3.5 11.0788 3.5 10.8V9.80001C3.5 9.52122 3.5 9.38182 3.47694 9.2659C3.38225 8.78987 3.01014 8.41776 2.53411 8.32307C2.41819 8.30001 2.27879 8.30001 2 8.30001C1.72121 8.30001 1.58181 8.30001 1.46589 8.32307C0.989863 8.41776 0.617746 8.78987 0.523058 9.2659Z" fill="white"/>
<path fill-rule="evenodd" clip-rule="evenodd" d="M30.3004 3.69635C32.5348 3.69645 34.6838 4.55501 36.3032 6.09456C36.4251 6.21342 36.62 6.21192 36.7401 6.0912L37.9058 4.91479C37.9666 4.85356 38.0005 4.77062 38 4.68432C37.9995 4.59803 37.9646 4.51549 37.9031 4.45498C33.6528 0.381667 26.9474 0.381667 22.6971 4.45498C22.6355 4.51544 22.6006 4.59796 22.6 4.68425C22.5994 4.77055 22.6333 4.85351 22.6941 4.91479L23.8601 6.0912C23.9801 6.21211 24.1751 6.21361 24.297 6.09456C25.9166 4.5549 28.0658 3.69635 30.3004 3.69635ZM30.3004 7.52374C31.5281 7.52366 32.7119 7.97998 33.622 8.80402C33.745 8.92097 33.9389 8.91843 34.0589 8.7983L35.2232 7.62189C35.2845 7.56018 35.3186 7.47647 35.3177 7.38948C35.3168 7.3025 35.2811 7.2195 35.2185 7.15905C32.4474 4.58131 28.1558 4.58131 25.3847 7.15905C25.3221 7.2195 25.2864 7.30254 25.2856 7.38955C25.2847 7.47657 25.3189 7.56027 25.3803 7.62189L26.5443 8.7983C26.6643 8.91843 26.8582 8.92097 26.9813 8.80402C27.8907 7.98052 29.0736 7.52425 30.3004 7.52374ZM32.538 10.3313C32.6002 10.2702 32.6345 10.1861 32.6327 10.0989C32.631 10.0117 32.5933 9.92904 32.5286 9.87052C31.2423 8.78262 29.3585 8.78262 28.0723 9.87052C28.0075 9.929 27.9698 10.0116 27.9679 10.0988C27.9661 10.1861 28.0003 10.2702 28.0625 10.3313L30.0769 12.3639C30.1359 12.4236 30.2164 12.4572 30.3004 12.4572C30.3844 12.4572 30.4649 12.4236 30.5239 12.3639L32.538 10.3313Z" fill="white"/>
</svg>
